<?xml version="1.0" standalone="no"?>
<!DOCTYPE svg PUBLIC "-//W3C//DTD SVG 20010904//EN"
 "http://www.w3.org/TR/2001/REC-SVG-20010904/DTD/svg10.dtd">
<svg version="1.0" xmlns="http://www.w3.org/2000/svg"
 width="270.000000pt" height="270.000000pt" viewBox="0 0 270.000000 270.000000"
 preserveAspectRatio="xMidYMid meet">
<metadata>
Created by potrace 1.14, written by Peter Selinger 2001-2017
</metadata>
<g transform="translate(0.000000,270.000000) scale(0.100000,-0.100000)"
fill="#000000" stroke="none">
<path d="M1368 2415 c-2 -2 -34 -6 -71 -10 -117 -11 -292 -62 -405 -117 -293
-142 -480 -379 -522 -663 -21 -144 3 -326 64 -475 42 -104 105 -197 202 -294
51 -52 96 -106 100 -120 10 -40 -2 -101 -40 -211 -19 -55 -33 -113 -31 -128 8
-66 69 -85 153 -47 24 11 118 71 210 133 92 62 176 116 187 121 11 4 85 18
165 32 320 54 536 153 708 325 195 195 280 469 228 740 -72 377 -324 632 -689
700 -54 10 -252 20 -259 14z m242 -495 c60 -16 140 -62 174 -101 16 -17 42
-61 59 -98 26 -58 30 -78 31 -161 1 -86 -2 -100 -28 -150 -142 -270 -668 -399
-895 -220 -59 47 -95 104 -120 192 -22 75 -20 175 3 229 17 40 78 123 110 151
39 33 135 89 198 115 139 56 349 76 468 43z"/>
</g>
</svg>
